# Exported from ProBuilder
# http://www.procore3d.com/probuilder
# 9/3/2017 7:10:55 PM

mtllib ./Floor.mtl
o Floor

g Floor
v -63 10 -49
v -103 10 -49
v -63 10.1 -49
v -103 10.1 -49
v -103 10 -49
v -103 10 -89
v -103 10.1 -49
v -103 10.1 -89
v -103 10 -89
v -63 10 -89
v -103 10.1 -89
v -63 10.1 -89
v -63 10 -89
v -63 10 -49
v -63 10.1 -89
v -63 10.1 -49
v -63 10.1 -49
v -103 10.1 -49
v -63 10.1 -89
v -103 10.1 -89
v -63 10 -89
v -103 10 -89
v -63 10 -49
v -103 10 -49

vn 0 0 1
vn 0 0 1
vn 0 0 1
vn 0 0 1
vn -1 0 0
vn -1 0 0
vn -1 0 0
vn -1 0 0
vn 0 0 -1
vn 0 0 -1
vn 0 0 -1
vn 0 0 -1
vn 1 0 0
vn 1 0 0
vn 1 0 0
vn 1 0 0
vn 0 1 0
vn 0 1 0
vn 0 1 0
vn 0 1 0
vn 0 -1 0
vn 0 -1 0
vn 0 -1 0
vn 0 -1 0

vt 0.5 20.20063
vt -39.5 20.20063
vt 0.5 20.30063
vt -39.5 20.30063
vt 0.5 20.20063
vt -39.5 20.20063
vt 0.5 20.30063
vt -39.5 20.30063
vt 40.5 20.20063
vt 0.5 20.20063
vt 40.5 20.30063
vt 0.5 20.30063
vt 40.5 20.20063
vt 0.5 20.20063
vt 40.5 20.30063
vt 0.5 20.30063
vt 0.5 20.20063
vt 40.5 20.20063
vt 0.5 -19.79937
vt 40.5 -19.79937
vt 0.5 -19.79937
vt -39.5 -19.79937
vt 0.5 20.20063
vt -39.5 20.20063

g Floor
usemtl ConcreteFloor
f 3/3/3 4/4/4 2/2/2 1/1/1
f 7/7/7 8/8/8 6/6/6 5/5/5
f 11/11/11 12/12/12 10/10/10 9/9/9
f 15/15/15 16/16/16 14/14/14 13/13/13
f 19/19/19 20/20/20 18/18/18 17/17/17
f 23/23/23 24/24/24 22/22/22 21/21/21

